<svg version="1.1" id="Layer_1" class="facebook" xmlns="http://www.w3.org/2000/svg" xmlns:xlink="http://www.w3.org/1999/xlink" x="0px" y="0px" viewBox="0 0 100 100" style="enable-background:new 0 0 100 100;" xml:space="preserve">
<style type="text/css">
	.st0{opacity:0.9031;}
	.st1{fill:#fff;}
</style>
<g id="_x31_1-July" class="st0">
	<g id="Home-page-final" transform="translate(-1012.000000, -4880.000000)">
		<g id="Group-62" transform="translate(-185.000000, 4291.000000)">
			<g id="Group-58" transform="translate(136.000000, 0.000000)">
				<g id="Group-41" transform="translate(45.000000, 0.000000)">
					<g id="Group-43">
						<g id="Group-51" transform="translate(78.000000, 195.000000)">
							<g id="Group-32" transform="translate(18.000000, 0.000000)">
								<g id="Group-31" transform="translate(3.000000, 0.000000)">
									<g id="social-media" transform="translate(917.000000, 391.000000)">
										<g id="facebook-app-logo" transform="translate(0.000000, 3.535714)">
											<path id="Shape" class="st1" d="M94.4-0.5H5.6C2.5-0.5,0.1,2,0.1,5v88.9c0,3,2.5,5.5,5.5,5.5h47.8V60.7h-13V45.6h13V34.5
												c0-12.9,7.9-19.9,19.4-19.9c5.5,0,10.2,0.4,11.6,0.6v13.5l-8,0c-6.3,0-7.5,3-7.5,7.3v9.6h14.9l-2,15.1H69v38.7h25.4
												c3,0,5.5-2.5,5.5-5.5V5C99.9,2,97.5-0.5,94.4-0.5z"></path>
										</g>
									</g>
								</g>
							</g>
						</g>
					</g>
				</g>
			</g>
		</g>
	</g>
</g>
</svg>