<svg version="1.1" id="Layer_1" class="instagram" xmlns="http://www.w3.org/2000/svg" xmlns:xlink="http://www.w3.org/1999/xlink" x="0px" y="0px" viewBox="0 0 100 100" style="enable-background:new 0 0 100 100;" xml:space="preserve">
<style type="text/css">
	.st0{opacity:0.9031;}
	.st1{fill:#fff;}
</style>
<g id="_x31_1-July" class="st0">
	<g id="Home-page-final" transform="translate(-1117.000000, -4880.000000)">
		<g id="Group-62" transform="translate(-185.000000, 4291.000000)">
			<g id="Group-58" transform="translate(136.000000, 0.000000)">
				<g id="Group-41" transform="translate(45.000000, 0.000000)">
					<g id="Group-43">
						<g id="Group-51" transform="translate(78.000000, 195.000000)">
							<g id="Group-32" transform="translate(18.000000, 0.000000)">
								<g id="Group-31" transform="translate(3.000000, 0.000000)">
									<g id="social-media" transform="translate(917.000000, 391.000000)">
										<g id="instagram" transform="translate(105.818182, 3.535714)">
											<path id="Shape" class="st1" d="M72.1-0.5H26.3c-14.8,0-26.9,12.1-26.9,27v45.9c0,14.9,12.1,27,26.9,27h45.8
												c14.8,0,26.9-12.1,26.9-27V26.5C99,11.6,86.9-0.5,72.1-0.5z M90.9,72.4c0,10.4-8.5,18.9-18.9,18.9H26.3
												c-10.4,0-18.9-8.5-18.9-18.9V26.5c0-10.4,8.5-18.9,18.9-18.9h45.8c10.4,0,18.9,8.5,18.9,18.9V72.4z"></path>
											<path id="Shape_1_" class="st1" d="M71.5,46c-0.7-4.8-2.9-9.1-6.3-12.5c-3.4-3.4-7.7-5.6-12.5-6.3
												c-2.2-0.3-4.4-0.3-6.6,0c-5.9,0.9-11.1,4-14.7,8.8s-5,10.7-4.2,16.6c0.9,5.9,4,11.1,8.8,14.7c3.9,2.9,8.5,4.4,13.3,4.4
												c1.1,0,2.2-0.1,3.3-0.2c5.9-0.9,11.1-4,14.7-8.8C70.9,57.8,72.3,51.9,71.5,46z M51.5,63.4c-3.8,0.6-7.5-0.4-10.6-2.7
												c-3.1-2.3-5.1-5.6-5.6-9.4c-0.6-3.8,0.4-7.6,2.7-10.6c2.3-3.1,5.6-5.1,9.4-5.6c0.7-0.1,1.4-0.2,2.1-0.2
												c0.7,0,1.4,0.1,2.1,0.2c6.3,0.9,11.1,5.8,12,12.1C64.7,55,59.3,62.3,51.5,63.4z"></path>
											<path id="Shape_2_" class="st1" d="M77.5,21.4c-0.8-0.8-1.9-1.2-3-1.2c-1.1,0-2.2,0.5-3,1.2c-0.8,0.8-1.2,1.9-1.2,3
												c0,1.1,0.4,2.2,1.2,3c0.8,0.8,1.9,1.2,3,1.2c1.1,0,2.2-0.5,3-1.2c0.8-0.8,1.2-1.9,1.2-3C78.8,23.3,78.3,22.2,77.5,21.4z"></path>
										</g>
									</g>
								</g>
							</g>
						</g>
					</g>
				</g>
			</g>
		</g>
	</g>
</g>
</svg>