<?xml version="1.0" encoding="utf-8"?>
<!-- Generator: Adobe Illustrator 21.0.2, SVG Export Plug-In . SVG Version: 6.00 Build 0)  -->
<svg version="1.1" id="Layer_1" xmlns="http://www.w3.org/2000/svg" xmlns:xlink="http://www.w3.org/1999/xlink" x="0px" y="0px"
	 viewBox="0 0 300 300" style="enable-background:new 0 0 300 300;" xml:space="preserve">
<style type="text/css">
	.st0{fill:#94C438;}
	.st1{fill:#FFCD00;}
	.st2{fill:#5AC5F3;}
	.st3{fill:#244598;}
</style>
<path class="st0" d="M287.1,7.6c0,0-20.3,33.3-33.4,76.1c-13,42.8-22.5,82.5-22.5,82.5s-25.9-8.3-81.1-8.9
	c-55.1-0.6-75.6,5.5-75.6,5.5s-7.5-22.4-13-41.9c-5.5-19.5-10.6-34.4-14.2-44.5c-3.5-10.1-10.5-26.6-15.6-39s-8.9-23-8.9-23
	S20.6,25,26.8,43.3C33,61.6,44,83.8,47.3,94.4c3.3,10.6,9.5,35.5,13.2,47.4c3.7,11.9,7,22,11.1,25.2c4.2,3.2,7.9,3.8,18.9,2.3
	c11-1.5,59.5-8.5,91.7-6.7c32.2,1.8,50.6,7.5,50.6,7.5s8.5-28.9,17.5-56.6S287.1,7.6,287.1,7.6z"/>
<path class="st0" d="M153.1,23.3c0,0-21-21.4-66.2-22.4c-45.3-1-61.6,9.7-61.6,9.7l-2.4,3.7c0,0,24.4-10.6,62.4-7.7
	S153.1,23.3,153.1,23.3z"/>
<path class="st0" d="M287.1,7.6c0,0-26.2-11.2-74.2-5.6c-48,5.7-59,20.2-59,20.2s3.5-0.1,12.2-2.6c8.7-2.5,38.5-12.6,63.6-15
	C254.9,2.2,287.1,7.6,287.1,7.6z"/>
<path class="st1" d="M136.9,67.2c0,0,0.4-2.3,2.5-4.1c2.1-1.8,4.9-2.6,6.3-6.7c1.4-4.1,4.6-13.5,16.7-13.4c12.1,0.1,13.7,9,13.7,9
	s5.6,3.2,6.8,5s1.3,3.1-1.6,5.7c-2.9,2.6-10.2,10-12.2,15.2c-2,5.3-6.7,21.2-8.9,28.6c-2.2,7.5-2.7,18.4-9.7,18.9
	c-6.9,0.5-5.6-10-5.3-17.9c0.2-7.9,1-14.5-1-23.9C142.2,74.1,136.9,67.2,136.9,67.2z"/>
<path class="st0" d="M207.5,47.6c13.4-10.2,20-22.5,34.4-31.1c14.3-8.6,17.5-5.9,20.6-4.4c3.1,1.5,4.9,3.7,4.9,6.1
	s-2.6,8.9-13.2,21.5c-10.6,12.7-17.2,18.7-21.5,24.8c-4.4,6.1-8.9,13.1-8.9,13.1s-1.1,3.8-2.7,8.2c-1.6,4.4-3.4,8-3.4,8
	s-2,2.3-6.8,7.2c-4.8,4.9-21.4,23.2-30.7,31.2c-9.3,8-21.8,19.4-26.4,17.2c-4.6-2.2-2.7-9.4-2.7-9.4s1.1-2.2,2.3-4.6
	c1.2-2.4-0.8-4.2-0.6-6.9c0.1-2.7,3.1-7.2,3.9-10.7c0.9-3.5,1.1-9.2,3-13.4c1.9-4.2,6.5-15.2,14.8-25.5
	C182.6,68.7,207.5,47.6,207.5,47.6z"/>
<path class="st2" d="M142.1,117.4c0,0,2.2,3.2,4.5,4.7c2.4,1.5,4.4,2.7,0.5,8.5c-3.9,5.8-14.9,8.3-14.9,8.3s-10,5.3-20.7,6.3
	c-10.7,1-24.9-20.7-24.9-20.7s-4-2.2-3.4-8.7c0.6-6.5,4.8-6.3,6.4-9.9c1.6-3.6-9.3-7.4-18.1-15.4s-7.1-10.6-6.2-14.6
	c0.9-4,7.3-4.8,8.4-5.6c1.1-0.8-3.4-3.5-14.5-10.5c-11.1-7-15-21.6-5.3-24.7c9.7-3.1,27.2-3.7,54,7.3c26.7,11.1,32.2,34.9,34.9,43.9
	C145.5,95.1,142.1,117.4,142.1,117.4z"/>
<path class="st3" d="M237.7,26.9c-9.7,2.1-23.8,10.7-44.1,26.8c-11.7,9.2-24,21-27.7,26.6c-1.9,2.8-1.8,2.2,0.5-3.3
	c1.4-3.2,3.4-6.7,6-10.3c0.6-0.9,0.6-0.9-0.4-2c-0.6-0.6-1.3-1-1.6-1c-0.9,0-5.5,4-7.8,6.8c-4.7,5.8-6.7,11.1-9.5,25.1
	c-1,5.2-2.3,10.8-2.8,12.3c-1,3.3-3.7,9.7-3.9,9.5c-0.1-0.1,0-1.6,0.3-3.4c0.8-6,1.2-15,0.8-20.8c-1.2-18.2-7.6-31.1-19.6-39.8
	c-3-2.2-10.6-6-14.5-7.2c-8-2.6-18.5-3.8-27-3c-2.9,0.2-6.5,0.8-7.9,1.2c-7,1.8-12.3,5.8-12.3,9.3c0,2.9,4.5,6.9,12.4,11.2
	c6.8,3.6,9.5,5.3,10,6.1c0.6,1-0.2,1.9-3,3.4c-4.4,2.2-6.2,4.6-6.2,7.8c0,1.2,0.4,1.9,1.9,3.5c1.6,1.7,3.1,2.7,9.2,5.6
	c9.3,4.6,13.6,7.4,13.6,8.9c0,0.1-1.4,1.3-3.2,2.7c-5.6,4.4-7.5,6.9-7.5,10.5c0,2.3,0.8,3.1,6.4,6.8c3,1.9,5.5,4.1,9.2,7.9
	c5.8,5.9,6.8,6.7,7.7,5.5c0.9-1.2,0.6-3-1.2-6.6c-2.2-4.5-4.5-7.7-9-12.2c-3.8-3.8-4.9-5.5-4.2-6.9c0.2-0.4,1.8-1.8,3.7-3
	c2.6-1.7,3.5-2.5,4.3-4.2c2.1-4.3-0.5-6.7-14.1-12.9c-10.2-4.6-10.8-5.3-7-7.1c6-2.9,8-4.7,8-7.5c0-3-2.4-5.1-12.9-11.1
	c-6.7-3.8-10.1-6.4-10.1-7.6c0-0.4,0.5-1.1,1.1-1.6c3.8-3.6,16.9-4.4,28.7-1.8c8.5,1.8,14.1,4.4,19.1,8.7
	c8.7,7.5,13.8,16.3,16.7,28.6c1.3,5.5,1.8,17.6,0.9,25.1c-0.3,2.7-0.4,5.3-0.2,5.9c0.3,1.2,2.8,2.8,3.9,2.6c0.4,0,0.7-0.6,0.7-0.6
	s0.3,0.7,0.6,0.9c0.3,0.2,1,0.6,1.5,0.7c0.8,0.2,1.2-0.1,2.9-2.7c4.4-6.8,7.3-13.9,11.7-28.7c1.4-4.9,2.7-8.4,2.8-7.9
	c0.1,0.5,0.4,0.9,0.7,0.9c0.3,0,0.6,0.2,0.6,0.4c0,0.8,2.3,0.4,4.4-0.8c2.4-1.4,3.9-2.7,16-14.2c12.7-12.1,15.5-14.5,24.3-21
	c19.3-14.3,28.9-19.6,32.4-18c1.3,0.6,1.3,1.2-0.2,3.5c-1.2,1.9-5.1,5.5-14.1,13.4c-13.4,11.7-21,21.1-24,29.6
	c-1.9,5.4-5.2,9-32.3,36c-14.9,14.8-18,18.3-18.5,21c-0.2,1.1-0.1,1.4,0.9,2c1,0.7,1.2,0.7,2.8-0.1c3.2-1.6,8.7-6.5,19.9-17.6
	c16.1-16,34.3-36.2,39.1-43.3c1.2-1.7,3.5-6.2,5.1-9.9l3-6.7l7.4-6.9c18.4-17.1,21.9-23.7,13.8-25.4
	C242.6,26.2,240.8,26.2,237.7,26.9z"/>
<path class="st3" d="M159.6,49.5c-5.2,1.4-8.5,5.8-9.5,12.3c-0.3,2.2,0.2,2.5,1,0.7c1.8-4.4,5.3-7.4,8.6-7.4c3.3,0,4.8,0.7,6.8,3
	c1.3,1.5,2.5,2.5,4.2,3.2c3.4,1.5,4.9,1.8,5.3,0.9c0.3-0.9-0.6-3-2.2-4.8c-0.7-0.8-1.6-2.3-2.1-3.4c-1.1-2.3-3-3.8-5.6-4.6
	C163.8,48.8,162.3,48.8,159.6,49.5z"/>
<path class="st3" d="M158.6,58.6c-2,2.5-0.2,5.3,2.8,4.2c3.2-1.2,2.5-5.3-0.9-5.3C159.8,57.6,159.1,57.9,158.6,58.6z"/>
<g>
	<path class="st3" d="M31.1,194.2c-0.6,0.1-3.4,0.3-6.3,0.3l-5.3,0.1l-5.7,27.6c-6.9,33.5-7.8,37.2-9.6,40.1
		c-0.9,1.4-2.5,2.9-3.5,3.3c-0.8,0.3-0.9,0.6-0.6,2.7l0.2,1.2l1-0.2c1.6-0.3,4.6-1.5,6.4-2.7c4.3-2.8,6.9-7.1,9.5-16
		c1.4-4.8,2.1-7.8,6.7-30.2c2.3-11.2,4.3-20.4,4.6-21.1c0.7-1.6,1.2-2.1,2.7-2.8c1.1-0.5,1.3-0.7,1.3-1.2c0-0.3,0.1-0.8,0.2-1
		C32.9,193.9,32.7,193.9,31.1,194.2z"/>
	<path class="st3" d="M37.5,195.1c-0.1,0.4-0.1,0.7,0.1,0.8c1,0.3,2.1,1.1,2.4,1.7c0.4,0.7,0.2,1.5-2.3,13.9L35,224.5v4.1
		c0,3.7,0.1,4.2,0.6,5.6c1.7,4.2,5.7,6.1,13.1,6.4c4.1,0.2,7.6-0.2,10.8-1.1c3.1-0.9,4.9-2,7-4c2.6-2.6,4.7-6.8,6.1-12.5
		c0.3-1.2,5.7-27.9,5.7-28.2c0,0-1.4,0-3.1,0.1c-1.7,0.1-4.7,0-6.5-0.2c-1.9-0.2-3.4-0.3-3.5-0.2c-0.1,0.1-0.2,0.4-0.3,0.7
		c-0.2,0.6-0.1,0.7,0.8,0.9c0.6,0.2,1.1,0.5,1.3,0.7c0.7,0.9,0.5,2.4-2,14.8c-3,14.5-3.7,17-5.6,19.6c-1.6,2.1-4.2,3.2-7.9,3.2
		c-4.8,0-6.7-1.4-7-5.1c-0.2-2.6,0.2-5.2,3.3-20.5l2.8-14h-4.2c-2.3,0-5.3-0.1-6.5-0.2l-2.3-0.2L37.5,195.1z"/>
	<path class="st3" d="M88.1,195c-0.1,0.3-1.9,9.2-4,19.7c-2.1,10.5-4,19.6-4.2,20.2c-0.5,1.4-1.2,2.1-2.8,2.7
		c-1,0.4-1.3,0.6-1.3,1.2l-0.1,0.7l13.4-0.1c12.6-0.1,13.6-0.1,15.6-0.6c4.3-1,8.2-3,10.3-5.2c2.2-2.3,3.7-5.9,3.7-9.3
		c0-1.8-0.1-2.3-0.7-3.5c-1.3-2.6-3.6-4.1-7.6-5l-2.1-0.5l1.5-0.4c3.5-1,7.2-3.7,8.7-6.1c1.7-2.9,2.2-6.8,1.2-9
		c-1-2.2-3.5-3.8-7.2-4.7c-1.6-0.4-3.7-0.5-13.1-0.5l-11.2-0.1L88.1,195z M106.3,200.8c2.4,0.9,3.5,2.7,3.2,5.2
		c-0.5,3.6-3,6.2-7.1,7.1c-2.2,0.5-8.1,0.5-8.1,0c0-0.2,0.6-3.2,1.3-6.6c0.7-3.4,1.3-6.3,1.3-6.4c0-0.1,1.8-0.1,4,0
		C104.2,200.2,105.1,200.3,106.3,200.8z M104.3,219.6c2.1,0.7,3.6,2,4,3.6c0.6,2.3-0.6,5.6-2.6,7.5c-2.5,2.3-4.5,2.9-10.9,2.9H90
		l1.5-7.3c0.8-4,1.5-7.3,1.5-7.4c0-0.1,2.1-0.1,4.8,0C101.7,219,102.9,219.1,104.3,219.6z"/>
	<path class="st3" d="M143,194.7c-1.2,0.1-3.9,0.2-5.8,0.1c-3.4-0.1-3.5-0.1-3.6,0.4c-0.1,0.3-1.9,9.4-4.1,20.2
		c-2.2,10.8-4.1,20-4.3,20.3c-0.5,1-1.2,1.5-2.6,2c-1,0.4-1.3,0.5-1.3,1.1l-0.1,0.7l1.9-0.2c2.1-0.2,9.9-0.3,12.9-0.1
		c1.9,0.1,1.9,0.1,2.1-0.5c0.2-0.6,0.1-0.7-0.8-1c-1.3-0.4-1.9-1.1-1.9-2.4c0.1-1.8,7.2-36.2,7.7-37.3c0.6-1.1,1.6-1.9,2.9-2.1
		c0.7-0.1,0.9-0.3,0.9-0.9c0.1-0.7,0.1-0.8-0.8-0.7C145.7,194.5,144.3,194.6,143,194.7z"/>
	<path class="st3" d="M166.5,194.7c-1.3,0.1-4,0.2-5.9,0.1c-1.9-0.1-3.5-0.1-3.5-0.1c0,0.6-8,39.8-8.3,40.5c-0.5,1.3-1.3,2-2.8,2.4
		c-0.6,0.2-1.1,0.4-1.1,0.6c0,0.2-0.1,0.5-0.2,0.7c-0.2,0.4,1.5,0.4,17.7,0.4h17.9l0.7-2.8c0.4-1.6,1-3.7,1.4-4.8l0.7-2l-0.7-0.1
		c-0.6-0.1-0.7,0-0.9,0.5c-0.2,0.9-1.6,2.3-2.6,2.8c-0.8,0.3-2.2,0.4-10.3,0.4c-5.2-0.1-9.4-0.1-9.5-0.1c0,0,1.6-7.8,3.5-17.3
		c2.6-12.9,3.6-17.4,4.1-18.1c0.6-1,1.5-1.6,3-1.8c0.6-0.1,1-0.3,1-0.5c0-0.2,0.1-0.5,0.2-0.7C171.2,194.3,170.5,194.3,166.5,194.7z
		"/>
	<path class="st3" d="M187.6,195.2c-0.1,0.6,0,0.7,0.5,0.7c0.8,0,1.9,0.5,2,1c0.1,0.3,0,0.7-0.1,1.1c-0.1,0.3-4.9,7.8-10.5,16.5
		c-5.6,8.7-10.3,16-10.5,16.2c-0.2,0.3,0.6,0.3,3.5,0.3h3.6l2.4-3.7l2.4-3.7h8.5c6.5,0,8.5,0.1,8.6,0.3c0.1,0.2,0.6,3.5,1.1,7.3
		c0.6,3.8,1.1,7.2,1.1,7.5c0.1,0.5,0.2,0.5,12.8,0.5c8.3,0,12.7-0.1,12.8-0.3c0.4-0.6,0.2-1.1-0.4-1.1c-0.9,0-2.6-0.8-2.9-1.3
		c-0.2-0.3-0.3-1.1-0.3-1.8c0-1.3,6.1-31.7,6.4-31.7c0.1,0,3.9,8.2,8.4,18.1l8.3,18.1l3.8,0.1c2.1,0,3.9,0,3.9,0
		c0-0.1,7.1-35.1,7.5-37l0.4-1.8h7.1h7.1l-0.2,0.7c-0.1,0.4-1.9,9.1-3.9,19.4l-3.8,18.7h7.4c7.4,0,7.4,0,7.5-0.6
		c0.1-0.5-0.1-0.6-1.3-0.8c-2.3-0.5-2.9-1.4-2.6-4c0.1-0.8,1.6-8.6,3.4-17.4l3.3-15.9h3.9c4.4,0,5.5,0.2,6.7,1.2
		c1.1,0.9,1.5,2,1.7,4.3c0.2,1.8,0.2,1.9,0.7,1.9c0.3,0,0.6-0.1,0.6-0.1c0-0.8,0.9-8.8,1.1-10.5c0.2-1.3,0.4-2.5,0.4-2.6
		c0-0.2-7.2-0.2-22-0.2l-22,0.1l-3.1,15.2c-1.7,8.3-3.1,15.2-3.2,15.3c-0.1,0.1-3.2-6.8-6.9-15.2l-6.8-15.3h-7.6
		c-4.7,0-7.6,0.1-7.7,0.3c-0.4,0.6-0.2,1.1,0.6,1.4c1.3,0.5,1.7,1,1.7,2.3c0,0.6-1.7,9.8-3.9,20.3l-3.9,19.1H214
		c-1.6,0-2.6-0.6-3.2-1.8c-0.3-0.7-1.7-7.3-4-19.5c-2-10.2-3.6-19.1-3.7-19.8c-0.3-2.6,0.6-2.3-7.9-2.3h-7.5L187.6,195.2z
		 M196.1,210c0.7,4.6,1.2,8.5,1.2,8.7c0,0.4-0.5,0.4-4.2,0.4c-5.9,0-8.3,0.6-10.7,2.8c-0.8,0.7-1.1,0.9-0.9,0.5
		c0.2-0.4,6.7-10.8,12.7-20.3c0.4-0.6,0.7-0.9,0.7-0.8C194.9,201.6,195.5,205.4,196.1,210z"/>
	<path class="st3" d="M43.3,254.7c-8.7,1.2-16.7,7-20.8,15.1c-2.7,5.3-3.7,12.4-2.4,17.3c1.6,6,6,10.4,11.8,12
		c2.6,0.7,7.6,0.6,10.8-0.3c2.2-0.6,6.4-2.4,7.5-3.3c0.2-0.2,0.9-1.9,1.6-3.8l1.2-3.5l-2.3,1.3c-9.2,5.4-17.8,3.6-20.8-4.4
		c-1.8-4.7-0.8-12.1,2.3-17.2c1.9-3.1,5.4-6,8.6-7c2.4-0.8,5.7-0.7,7.7,0c2.6,1,4.3,3.4,4.7,6.9c0.2,1.3,0.2,1.5,0.8,1.5
		c0.3,0,0.6-0.1,0.6-0.2c0-0.5,1.3-8.3,1.6-9.9c0.2-1,0.4-2,0.4-2.2c0-0.4-2.5-1.5-4.7-2C50.1,254.5,45.7,254.4,43.3,254.7z"/>
	<path class="st3" d="M75.4,264.2c-5.8,1.3-11.4,6.1-13.9,11.9c-4.6,11-0.7,21.9,8.6,23.3c5.5,0.9,11.9-1.5,16-5.9
		c3.9-4.2,6-9.5,6.1-15.4c0.1-4.8-1-7.8-3.6-10.7c-2.5-2.7-5.2-3.7-9.3-3.7C77.9,263.9,76.2,264,75.4,264.2z M79.3,268.7
		c1.6,0.3,3.3,1.8,4.2,3.6c1,2.1,1.3,4.1,1.1,7.6c-0.3,5.3-1.6,9.1-4.1,11.9c-2,2.1-3.7,2.9-6.3,2.9c-1.8,0-2.2-0.1-3.2-0.7
		c-1.3-0.8-2.5-2.4-3.2-4.4c-0.7-2-0.6-8.9,0.1-11.6c1.4-5.1,4-8.2,7.7-9.2C77.2,268.4,77.7,268.3,79.3,268.7z"/>
	<path class="st3" d="M144.8,264.2c-6.2,1.4-10.4,5.5-10.8,10.7c-0.1,1.2,0,2.3,0.2,3.1c0.6,2.3,3.4,4.4,8.3,6.2
		c5.3,2,6.9,3.4,6.6,6c-0.2,1.6-1.2,2.8-3.4,3.9c-1.7,0.9-1.9,0.9-4.6,0.9c-2.3,0-3-0.1-4-0.5c-2.6-1.2-4.2-3.6-4.5-6.4
		c-0.1-1.2-0.2-1.6-0.6-1.6c-0.3,0-0.5,0.3-0.6,1.3c-0.1,0.7-0.5,3.1-0.9,5.2c-0.5,2.3-0.7,4-0.5,4.1c0.4,0.4,3.8,1.4,6.2,1.9
		c2.8,0.5,7.6,0.4,10-0.3c4.1-1.1,8.1-4.1,9.5-7.1c1.1-2.2,1.4-4.3,1-6.1c-0.7-3.2-2.8-4.8-9.9-7.4c-2.4-0.9-4.8-2.5-5.3-3.5
		c-0.9-1.7-0.1-4,1.9-5.3c1.4-1,2.7-1.3,5-1.3c2.3,0.1,3.8,0.5,5.3,1.6c1.7,1.2,2.3,2.3,2.9,4.9c0.1,0.5,0.3,0.7,0.6,0.7
		c0.4,0,0.6-0.7,1.8-8.8c0.1-0.8,0.1-0.8-1.3-1.3C154.5,263.9,148.2,263.4,144.8,264.2z"/>
	<path class="st3" d="M99.5,264.8c-0.3,0.3-0.1,1,0.4,1c0.8,0,1.4,0.9,1.4,2.1c-0.1,1.8-5,27-5.5,27.9c-0.4,0.8-1.3,1.5-2.1,1.5
		c-0.3,0-0.8,0.9-0.6,1.2c0.1,0.1,1.2,0,2.6-0.2c1.7-0.2,3.2-0.2,4.9,0c1.3,0.2,2.5,0.3,2.5,0.3c0.1,0,0.1-0.3,0.1-0.6
		c0-0.5-0.1-0.6-0.6-0.6c-0.3,0-0.9-0.2-1.3-0.5c-0.5-0.4-0.7-0.7-0.7-1.7c0-1,4.2-23.7,4.5-24c0.1-0.1,0.1-0.1,0.2,0
		c0.1,0.1,2.7,6.2,5.9,13.7l5.8,13.6l2.7,0.1c1.7,0.1,2.7,0,2.7-0.2c0-1.1,5.9-30.7,6.3-31.3c0.4-0.6,0.8-0.9,2.2-1.3
		c0.2-0.1,0.4-0.3,0.4-0.6c0-0.4-0.4-0.5-5-0.5c-4,0-5,0.1-5.1,0.4c-0.2,0.4,0.3,0.8,0.9,0.8c0.2,0,0.7,0.2,1,0.4
		c0.9,0.6,0.7,2-1.1,11.6c-1.9,9.9-1.9,9.9-2.1,9.7c-0.1-0.1-2.3-5.2-4.9-11.5l-4.7-11.4H105C102,264.7,99.6,264.8,99.5,264.8z"/>
	<path class="st3" d="M165.2,264.7c-0.4,0.4-0.1,1,0.6,1.2c1.4,0.4,1.4,0.9-0.4,10.4c-2.2,11.2-2.3,12-2.1,14.9
		c0.2,3.9,1.2,5.6,3.8,6.9c2.1,1,4.5,1.3,8.3,1.2c4.9-0.2,7.7-1.2,10-3.6c2.8-2.8,3.8-5.9,6.2-18.3c1-5.2,2-9.7,2.2-10.1
		c0.4-0.9,0.9-1.2,1.8-1.5c0.4-0.1,0.8-0.4,0.9-0.8c0.2-0.6,0.2-0.6-1.4-0.4c-1.4,0.2-6.1,0.2-9.5,0.1c-0.9-0.1-1,0-1.1,0.5
		c-0.1,0.4,0.1,0.6,0.5,0.6c0.3,0.1,0.8,0.4,1.1,0.8l0.5,0.7l-1.9,9.6c-2.6,13.6-3.4,15.7-6.2,17.1c-1.1,0.5-1.6,0.6-3.4,0.6
		s-2.3-0.1-3.2-0.6c-1.6-0.9-2-2.1-1.8-5.2c0.2-2.2,3.4-19.9,3.9-21.3c0.3-0.8,1.1-1.5,2-1.8c0.5-0.1,0.8-0.4,0.8-0.8
		c0.1-0.6,0.1-0.6-1.7-0.4c-2.2,0.2-6.1,0.2-8.2,0C166.1,264.6,165.3,264.6,165.2,264.7z"/>
	<path class="st3" d="M201.9,265c0,0.2,0,0.4,0,0.5c0,0.1,0.4,0.3,0.8,0.4c0.9,0.2,1.3,1.1,1.1,2.3c-0.5,2.9-6.8,26.6-7.2,27.3
		c-0.7,1.1-1.3,1.7-2.2,1.9c-0.5,0.1-0.8,0.4-0.8,0.7c-0.1,0.5,0.1,0.5,4.9,0.5c4.9,0,5,0,5-0.5c0-0.4-0.2-0.6-0.7-0.7
		c-1.1-0.3-1.3-0.6-1.3-1.7c0-0.6,1.1-5.6,2.4-11.1c2.8-11.6,2.9-12.2,3.1-11.8c0.1,0.1,0.9,5.8,2,12.6c1,6.8,2,12.6,2,12.9
		c0.1,0.5,0.3,0.6,2.1,0.6h2l6.6-12.9c3.6-7.1,6.6-12.8,6.7-12.6c0.1,0.3-2.4,19.7-2.8,21.2c-0.4,1.5-1.1,2.4-2.4,2.8
		c-0.7,0.3-1,0.5-1.1,0.9c-0.1,0.5,0,0.6,1.1,0.4c3.2-0.4,5.5-0.4,8.1-0.2c1.5,0.2,2.8,0.3,2.8,0.2c0-0.1,0.2-0.3,0.2-0.7
		c0.2-0.4,0.1-0.6-0.3-0.6c-0.3,0-0.7-0.2-1-0.4c-0.8-0.6-0.8-1.6,1.1-16.3c1.3-10.4,1.8-13.2,2.1-13.8c0.4-0.5,0.8-0.8,2-1.1
		c0,0,0.1-0.2,0.2-0.5c0.2-0.5,0-0.5-4.9-0.5h-5l-4.5,8.8c-6.8,13.2-7.6,14.6-7.7,14.3c-0.1-0.2-0.9-5.4-1.9-11.7l-1.8-11.4h-5.3
		C203.1,264.7,201.9,264.8,201.9,265z"/>
	<path class="st3" d="M244,265.2c-0.1,0.5,0,0.7,0.7,0.9c0.9,0.3,1.1,0.7,1.1,1.8c0,1.4-5.1,27.3-5.5,28c-0.5,0.8-1.1,1.2-1.9,1.4
		c-0.6,0.1-0.7,0.3-0.7,0.8v0.6h12.8h12.8l0.4-1.9c0.3-1,0.8-3.2,1.3-4.8c0.5-1.6,0.9-3,0.9-3.1c0-0.1-0.2-0.2-0.5-0.2
		c-0.4,0-0.6,0.4-0.9,1.3c-0.5,1.5-1.6,2.9-2.7,3.5c-0.7,0.4-1.7,0.4-7.3,0.5c-3.6,0.1-6.6,0-6.6-0.1c0-0.1,0.5-2.5,1-5.4
		c0.6-2.8,1-5.2,1-5.3c0-0.1,1.9-0.1,4.1-0.1c4.8,0,5.3,0.2,5.3,1.7c0,0.7,0.1,0.9,0.5,0.8c0.3-0.1,0.5-0.4,0.5-0.8
		c0.1-0.9,1.6-8.1,1.7-8.6c0.3-0.8-0.6-0.3-1.1,0.6c-0.8,1.6-1.6,1.9-6.1,1.9c-3.5,0-3.9-0.1-3.9-0.5c0-0.2,0.4-2.3,0.8-4.6l0.8-4.2
		l6-0.1c4.8-0.1,6.2,0,6.9,0.3c1,0.4,1.4,1.2,1.4,2.6c0,0.7,0.1,0.9,0.5,0.9c0.4,0,0.5-0.5,0.9-3.4c0.3-1.8,0.5-3.7,0.6-4.2l0.1-0.8
		h-12.5h-12.5L244,265.2z"/>
	<path class="st3" d="M274.3,264.8c0,0.2-0.1,0.4-0.2,0.6c-0.1,0.3,0.1,0.5,0.5,0.6c0.9,0.3,1.5,0.9,1.5,1.6c0,1-5.1,27.3-5.5,28.2
		c-0.3,0.8-1.5,1.6-2.2,1.6c-0.2,0-0.4,0.3-0.5,0.6c-0.2,0.7-0.3,0.7,3.1,0.4c1.9-0.2,3.4-0.2,5.5,0c1.6,0.2,2.9,0.3,3,0.2
		c0-0.1,0.2-0.3,0.2-0.7c0.2-0.5,0.1-0.6-0.3-0.6c-0.7,0-1.6-0.9-1.6-1.7c0-0.4,1.1-6.5,2.5-13.6l2.5-12.9h2.5
		c2.9,0,4.1,0.3,5.2,1.2c1.6,1.3,1.9,3.2,1.1,5.9c-0.3,1.1-0.7,1.7-2,2.9c-1.9,1.9-3.7,2.6-6.6,2.8c-1.1,0.1-2,0.3-2.1,0.4
		c-0.1,0.1,0.9,2.4,2.2,5.1c1.2,2.7,2.8,6.3,3.4,8l1.1,3h5h5v-0.6c0-0.4-0.2-0.6-0.5-0.6c-0.7,0-2.5-2.1-3.5-4.1
		c-1.3-2.8-4.2-9.5-4.2-9.6c0-0.1,0.5-0.3,1.1-0.5c1.9-0.6,3.9-1.7,5.4-3.2c2.6-2.4,3.8-5.4,3.6-8.8c-0.2-2.4-0.8-3.7-2.7-4.8
		c-2.2-1.4-3.6-1.6-13.6-1.7C277.4,264.6,274.3,264.6,274.3,264.8z"/>
</g>
</svg>
