<svg version="1.1" id="Layer_1" xmlns="http://www.w3.org/2000/svg" xmlns:xlink="http://www.w3.org/1999/xlink" x="0px" y="0px" viewBox="-14 0 100 100" style="enable-background:new -14 0 100 100;" xml:space="preserve">
<style type="text/css">
	.st0{opacity:0.9031;}
	.st1{fill:#fff;}
</style>
<g id="_x31_1-July" class="st0">
	<g id="Home-page-final" transform="translate(-1212.000000, -4879.000000)">
		<g id="Group-62" transform="translate(-185.000000, 4291.000000)">
			<g id="Group-58" transform="translate(136.000000, 0.000000)">
				<g id="Group-41" transform="translate(45.000000, 0.000000)">
					<g id="Group-43">
						<g id="Group-51" transform="translate(78.000000, 195.000000)">
							<g id="Group-32" transform="translate(18.000000, 0.000000)">
								<g id="Group-31" transform="translate(3.000000, 0.000000)">
									<g id="social-media" transform="translate(917.000000, 391.000000)">
										<g id="icon-linkedin" transform="translate(200.000000, 2.000000)">
											<path id="Combined-Shape" class="st1" d="M-2,0h76c6.6,0,12,5.4,12,12v76c0,6.6-5.4,12-12,12H-2c-6.6,0-12-5.4-12-12V12
												C-14,5.4-8.6,0-2,0z M19.3,79.2V33.3H6.8v45.8L19.3,79.2L19.3,79.2z M13.1,28c4,0,7.3-3.3,7.3-7.4s-3.3-7.4-7.3-7.4
												s-7.3,3.3-7.3,7.4S9.1,28,13.1,28z M69.3,79.2V51c0-21.9-23.3-21.1-29.2-10.3v-7.4H27.7v45.8h12.5V55.8
												c0-13,16.7-14,16.7,0v23.3L69.3,79.2L69.3,79.2z"></path>
										</g>
									</g>
								</g>
							</g>
						</g>
					</g>
				</g>
			</g>
		</g>
	</g>
</g>
</svg>