<?xml version="1.0" encoding="utf-8"?>
<!-- Generator: Adobe Illustrator 19.0.0, SVG Export Plug-In . SVG Version: 6.00 Build 0)  -->
<svg version="1.1" id="Layer_1" xmlns="http://www.w3.org/2000/svg" xmlns:xlink="http://www.w3.org/1999/xlink" x="0px" y="0px"
	 viewBox="0 0 251.1 88" style="enable-background:new 0 0 251.1 88;" xml:space="preserve">
<style type="text/css">
	.st0{fill:#DC1D2A;}
	.st1{fill:#4A4A4A;}
</style>
<g>
	<path class="st0" d="M34.7,0c0.5,0.1,1.1,0.2,1.6,0.3c4,0.9,7.1,4.5,7.5,8.6c0,0.5,0.1,1.1,0.1,1.6c0,7.4,0,14.7,0,22.1
		c0,2.9-0.9,5.5-3.1,7.5c-2.9,2.7-6.4,3.5-10.1,2.2c-3.6-1.2-5.8-3.9-6.6-7.7c-0.1-0.5-0.1-1-0.1-1.5c0-7.8,0-15.6,0-23.5
		c0-4.8,3.9-9,8.7-9.6C32.7,0.1,32.8,0,33,0C33.5,0,34.1,0,34.7,0z M37.3,21.3c0-3.8,0-7.7,0-11.5c0-1.6-0.8-2.7-2.2-3.3
		c-1.4-0.6-2.9-0.2-4,0.8c-0.8,0.8-1,1.7-1,2.8c0,7.5,0,15,0,22.5c0,0.2,0,0.3,0,0.5c0.2,2.2,2.3,3.8,4.5,3.2
		c1.6-0.4,2.8-1.8,2.8-3.5C37.3,29,37.3,25.2,37.3,21.3z"/>
	<path class="st0" d="M0,0.5c2.1,0,4.3,0,6.4,0C6.8,0.5,7,0.6,7.1,1c1.3,4.1,2.6,8.3,3.8,12.4c0.3,1.1,0.4,2.3,0.7,3.5
		c0,0.2,0.1,0.4,0.2,0.6c0.1-0.7,0.2-1.4,0.2-2.1c0.1-1.8,0.8-3.4,1.3-5.1c0.9-3.1,1.9-6.2,2.8-9.3c0.1-0.4,0.3-0.5,0.7-0.5
		c2.1,0,4.2,0,6.4,0c-0.1,0.4-0.2,0.7-0.3,1c-2.6,7.6-5.3,15.2-7.9,22.8c-0.1,0.3-0.2,0.7-0.2,1c0,5.4,0,10.9,0,16.3
		c0,0.2,0,0.4,0,0.6c-2.1,0-4.1,0-6.2,0c0-0.2,0-0.5,0-0.7c0-5.4,0-10.8,0-16.2c0-0.3-0.1-0.7-0.2-1C5.6,16.6,2.9,8.8,0.2,1
		C0.1,0.9,0.1,0.7,0,0.5C0,0.6,0,0.5,0,0.5z"/>
	<path class="st0" d="M73.3,0.6c0.1,0,0.3,0,0.4,0c3.6,0,7.3,0,10.9,0.1c2.5,0.1,4.8,0.9,6.5,3c1.1,1.4,1.8,3.1,1.9,4.9
		c0.1,2.9,0.2,5.9,0.1,8.8c-0.1,2.5-1.2,4.6-2.9,6.3c-0.3,0.3-0.3,0.5-0.2,0.9c1.5,5.7,2.9,11.4,4.4,17.1c0,0.2,0.1,0.4,0.1,0.5
		c-2.3,0-4.5,0-6.8,0c-0.3-1.2-0.6-2.4-0.9-3.6c-0.9-3.9-1.9-7.8-2.8-11.7c-0.1-0.4-0.2-0.5-0.6-0.5c-1.1,0-2.1,0-3.2,0
		c-0.4,0-0.6,0.1-0.6,0.6c0,4.8,0,9.7,0,14.5c0,0.2,0,0.5,0,0.7c-2.1,0-4.2,0-6.2,0C73.3,28.4,73.3,14.5,73.3,0.6z M79.6,20.4
		c1.3,0,2.5,0,3.8,0c2,0,3.6-1.5,3.6-3.5c0-2.2,0.1-4.4,0-6.6C86.9,8.1,85.8,7,83.6,7c-1.2,0-2.4,0-3.6,0c-0.1,0-0.2,0-0.3,0
		C79.6,11.5,79.6,15.9,79.6,20.4z"/>
	<path class="st0" d="M74.5,72c0,5.3,0,10.4,0,15.7c-2.1,0-4.1,0-6.2,0c0-13.8,0-27.7,0-41.5c0.1,0,0.2,0,0.3,0
		c3.5,0,7.1,0,10.6,0.1c1,0,2.1,0.2,3.1,0.5c3.1,1,4.8,3.2,5.4,6.3c0.2,1,0.3,2,0.3,3c0,2,0,4.1,0,6.1c0,2.8-1,5.2-3,7.1
		c-0.3,0.3-0.3,0.5-0.2,0.8c1.5,5.7,2.9,11.4,4.4,17.1c0,0.2,0.1,0.3,0.1,0.5c-0.2,0-0.3,0-0.5,0c-1.9,0-3.8,0-5.7,0
		c-0.4,0-0.5-0.1-0.6-0.5c-1.2-4.9-2.4-9.8-3.5-14.7c-0.1-0.4-0.2-0.5-0.7-0.5C77,72.1,75.8,72,74.5,72z M74.5,65.9
		c1.3,0,2.6,0,3.9,0c1.7,0,3.3-1.3,3.4-3c0.1-2.5,0.1-5,0-7.5c-0.1-1.6-1-2.5-2.6-2.8c-0.3-0.1-0.6-0.1-0.9-0.1c-1.1,0-2.3,0-3.4,0
		c-0.1,0-0.3,0-0.4,0C74.5,57,74.5,61.4,74.5,65.9z"/>
	<path class="st0" d="M65.9,66.9c0,3.8,0,7.7,0,11.5c0,4.5-3.1,8.4-7.5,9.5c-5.7,1.4-11.3-2.2-12.3-8c-0.1-0.6-0.1-1.1-0.1-1.7
		c0-7.5,0-15,0-22.6c0-4.6,3-8.5,7.3-9.7c5.6-1.5,11.3,2,12.4,7.7c0.1,0.7,0.2,1.4,0.2,2C65.9,59.4,65.9,63.2,65.9,66.9
		C65.9,66.9,65.9,66.9,65.9,66.9z M52.2,66.8c0,3.6,0,7.3,0,10.9c0,0.4,0,0.9,0.1,1.3c0.4,1.7,2.1,2.9,3.9,2.8
		c1.9-0.2,3.3-1.7,3.3-3.6c0-7.6,0-15.2,0-22.8c0,0,0-0.1,0-0.1c-0.1-2.6-2.9-4.3-5.2-3.1c-1.4,0.7-2.1,1.9-2,3.5
		C52.2,59.4,52.2,63.1,52.2,66.8z"/>
	<path class="st0" d="M48.7,0.6c2,0,4,0,6.1,0c0,0.2,0,0.5,0,0.7c0,10.4,0,20.8,0,31.2c0,0.9,0.2,1.8,0.7,2.5c1,1.3,2.6,1.8,4.1,1.2
		c1.5-0.5,2.4-1.9,2.4-3.5c0-10.5,0-21,0-31.5c0-0.2,0-0.4,0-0.7c2.2,0,4.4,0,6.5,0c0,0.2,0,0.4,0,0.5c0,10.6,0,21.1,0,31.7
		c0,4.7-3,8.6-7.4,9.7c-5.7,1.5-11.3-2-12.4-7.7c-0.1-0.6-0.2-1.3-0.2-1.9c0-10.6,0-21.2,0-31.8C48.7,0.9,48.7,0.8,48.7,0.6z"/>
	<path class="st0" d="M3.1,76.5C5.1,76.3,7,76.2,9,76c0.1,0.7,0.2,1.4,0.4,2.1c0.3,1.1,0.7,2.2,1.5,3.1c1.4,1.6,3.6,1.7,5.1,0.3
		c1.6-1.5,1.8-3.5,1.2-5.5c-0.4-1.5-1.3-2.7-2.3-3.7c-2-2-4.1-3.9-6.1-5.8c-1.6-1.6-3.1-3.3-4-5.5c-1.3-3.2-1.5-6.6-0.1-9.8
		c1.4-3.3,4-5.2,7.6-5.5c2.3-0.2,4.4,0.1,6.4,1.1c2.7,1.4,4,3.8,4.6,6.7c0.1,0.5,0.2,1,0.3,1.6c-2,0.4-4,0.7-5.9,1.1
		c-0.2-0.8-0.4-1.6-0.6-2.3c-0.1-0.5-0.4-0.9-0.6-1.3c-1-1.8-4.4-2.1-5.5,0.3c-0.9,2-0.8,3.9,0,5.8c0.9,2,2.3,3.5,3.9,4.9
		c1.6,1.4,3.2,2.8,4.6,4.3c2.1,2.2,3.7,4.8,4.2,7.8c0.7,3.7-0.2,7-2.7,9.8c-1.1,1.2-2.5,1.9-4,2.3c-2.1,0.5-4.2,0.5-6.2,0
		C7.6,87,5.6,85,4.4,82.1c-0.7-1.6-1.1-3.3-1.2-5C3.1,76.9,3.1,76.7,3.1,76.5z"/>
	<path class="st0" d="M103.5,88c-2.1,0-4.1,0-6.3,0c0-0.2,0-0.4,0-0.6c0-5.4,0-10.8,0-16.2c0-0.4-0.1-0.8-0.2-1.2
		c-2.7-7.7-5.4-15.5-8.1-23.2c-0.1-0.2-0.1-0.3-0.2-0.6c0.8,0,1.5,0,2.2,0c1.4,0,2.9,0,4.3,0c0.3,0,0.4,0.1,0.5,0.3
		c1.3,4.3,2.7,8.5,3.9,12.8c0.4,1.2,0.5,2.6,0.8,3.9c0.1-0.7,0.2-1.3,0.2-2c0.1-1.7,0.7-3.2,1.1-4.8c1-3.2,2-6.5,2.9-9.7
		c0.1-0.2,0.1-0.3,0.2-0.5c2.3,0,4.5,0,6.9,0c-0.1,0.2-0.1,0.4-0.2,0.5c-2.7,7.8-5.4,15.5-8.1,23.3c-0.1,0.3-0.2,0.7-0.2,1
		c0,5.4,0,10.9,0,16.3C103.5,87.5,103.5,87.7,103.5,88z"/>
	<path class="st0" d="M24.8,52.4c0-2.1,0-4.2,0-6.2c6.5,0,13,0,19.5,0c0,2,0,4.1,0,6.2c-0.2,0-0.4,0-0.6,0c-1.7,0-3.4,0-5.1,0
		c-0.9,0-0.9,0-0.9,1c0,3,0,6,0,9c0,8.2,0,16.4,0,24.6c0,0.2,0,0.5,0,0.7c-2.1,0-4.1,0-6.2,0c0-0.2,0-0.5,0-0.7
		c0-11.3,0-22.6,0-33.9c0-0.8,0.1-0.7-0.7-0.8c-1.8,0-3.5,0-5.3,0C25.2,52.4,25,52.4,24.8,52.4z"/>
	<path class="st1" d="M117.2,0.5c0.5,0,1,0,1.5,0c0,29.1,0,58.2,0,87.3c-0.5,0-1,0-1.5,0C117.2,58.7,117.2,29.6,117.2,0.5z"/>
	<path class="st1" d="M171.4,44.3c0-2,0.1-4.1,0.7-6c1-3.2,3.1-4.9,6.4-5.1c1.4-0.1,2.8,0,4.2,0.2c2.6,0.4,4.4,2,5.1,4.5
		c0.4,1.4,0.6,2.8,0.8,4.3c0.2,2.7,0.2,5.4-0.5,8c-0.9,3.4-3.2,5.3-6.8,5.4c-1.4,0-2.7,0-4.1-0.2c-2.7-0.5-4.3-2.3-5.1-4.8
		C171.6,48.4,171.4,46.4,171.4,44.3z M186.9,44.3c-0.2-1.7-0.3-3.4-0.6-5c-0.4-2.3-1.7-3.9-4.1-4.2c-1.2-0.2-2.4-0.2-3.5-0.1
		c-2.6,0.2-4.1,1.5-4.7,4c-0.3,1.3-0.5,2.7-0.6,4.1c-0.1,2.1,0,4.2,0.4,6.2c0.5,2.3,1.8,3.9,4.3,4.3c1,0.1,2,0.2,3,0.1
		c2.9-0.2,4.6-1.6,5.1-4.5C186.7,47.7,186.7,46,186.9,44.3z"/>
	<path class="st1" d="M133,33.5c0.6,0,1.1,0,1.7,0c0.1,0,0.3,0.2,0.4,0.3c3.9,5.8,7.7,11.7,11.6,17.5c0.1,0.2,0.2,0.3,0.4,0.4
		c0-6.1,0-12.1,0-18.2c0.5,0,1,0,1.6,0c0,0.2,0,0.3,0,0.5c0,6.9,0,13.7,0,20.6c0,0.5-0.1,0.6-0.6,0.6c-0.6,0-0.9-0.2-1.3-0.7
		c-3.9-5.9-7.9-11.8-11.8-17.7c-0.1-0.1-0.2-0.2-0.3-0.4c0,6.3,0,12.5,0,18.8c-0.5,0-1,0-1.5,0c-0.1,0-0.2-0.2-0.2-0.3
		c0-0.1,0-0.3,0-0.4c0-6.8,0-13.5,0-20.3C133,34,133,33.7,133,33.5z"/>
	<path class="st1" d="M134.6,3.7c0,6.2,0,12.4,0,18.6c-0.6,0-1.1,0-1.7,0c0-0.2,0-0.4,0-0.6c0-6.8,0-13.6,0-20.4
		c0-0.6,0-0.6,0.7-0.7c0.9-0.1,1.4,0.3,1.9,1c3.7,5.7,7.5,11.3,11.2,17c0.1,0.1,0.2,0.2,0.3,0.4c0-6.2,0-12.2,0-18.3
		c0.5,0,1,0,1.6,0c0,7.2,0,14.4,0,21.6c-0.4,0-0.8,0-1.2,0c-0.1,0-0.3-0.2-0.4-0.4c-2.6-3.9-5.2-7.7-7.8-11.6
		c-1.4-2.1-2.8-4.2-4.2-6.4c-0.1-0.1-0.1-0.2-0.2-0.3C134.7,3.7,134.7,3.7,134.6,3.7z"/>
	<path class="st1" d="M166.8,33.5c0.5,0,1,0,1.6,0c0,7.2,0,14.4,0,21.6c-0.9,0.3-1.3,0.1-1.8-0.6c-3.9-5.9-7.9-11.8-11.8-17.7
		c-0.1-0.1-0.2-0.2-0.4-0.3c0,0.2,0,0.3,0,0.5c0,5.8,0,11.7,0,17.5c0,0.7,0,0.7-0.7,0.7c-0.3,0-0.5,0-0.8,0c0,0-0.1,0-0.2,0
		c0-7.2,0-14.4,0-21.6c0.6,0,1.1,0,1.7,0c0.1,0,0.3,0.2,0.3,0.3c3.9,5.9,7.7,11.7,11.6,17.6c0.1,0.1,0.2,0.3,0.3,0.5
		C166.8,45.7,166.8,39.6,166.8,33.5z"/>
	<path class="st1" d="M164.5,84.6c0-6.1,0-12.1,0-18.2c0.5,0,1,0,1.6,0c0,7.2,0,14.4,0,21.7c-0.4,0-0.8,0-1.2,0
		c-0.1,0-0.3-0.2-0.3-0.3c-4-6-8-12-12-18c-0.1-0.1-0.2-0.3-0.4-0.4c0,6.2,0,12.4,0,18.7c-0.6,0-1.1,0-1.7,0c0-7.2,0-14.4,0-21.7
		c0.6,0,1.1,0,1.7,0c0.1,0,0.3,0.2,0.3,0.3c3.9,5.8,7.7,11.7,11.6,17.5C164.1,84.3,164.3,84.4,164.5,84.6
		C164.4,84.6,164.4,84.6,164.5,84.6z"/>
	<path class="st1" d="M190.1,0.7c0.1,0,0.2,0,0.3,0c2.6,0,5.2,0,7.7,0.1c0.8,0,1.6,0.2,2.3,0.5c1.6,0.6,2.5,1.9,2.8,3.5
		c0.2,1.3,0.2,2.5-0.1,3.8c-0.5,2.1-1.8,3.2-3.9,3.6c-0.1,0-0.3,0-0.4,0.1c0,0-0.1,0-0.1,0.1c2,3.3,4,6.6,6,10c-0.8,0-1.4,0-2.1,0
		c-0.1,0-0.3-0.2-0.4-0.4c-1.7-3-3.4-5.9-5.1-8.9c-0.2-0.4-0.4-0.5-0.9-0.5c-1.3,0-2.6,0-3.8,0c-0.7,0-0.7,0-0.7,0.7
		c0,2.8,0,5.6,0,8.4c0,0.2,0,0.4,0,0.6c-0.6,0-1.2,0-1.8,0C190.1,15.1,190.1,7.9,190.1,0.7z M191.9,6.7c0,1.3,0,2.7,0,4
		c0,0.3,0,0.4,0.4,0.4c1.9,0,3.9,0,5.8-0.1c1.7-0.1,2.8-1,3.2-2.6c0.2-0.8,0.2-1.6,0.2-2.3c-0.1-2.5-1.2-3.6-3.7-3.7
		c-1.8-0.1-3.6,0-5.4-0.1c-0.4,0-0.4,0.2-0.4,0.5C191.9,4.1,191.9,5.4,191.9,6.7z"/>
	<path class="st1" d="M191.5,66.3c4.2,0,8.4,0,12.7,0c0,0.5,0.1,1.1,0.1,1.7c-3.7,0-7.3,0-11,0c0,2.6,0,5.2,0,7.8c3.1,0,6.3,0,9.4,0
		c0,0.6,0,1,0,1.6c-3.1,0-6.3,0-9.4,0c0,3,0,5.9,0,8.8c3.8,0,7.6,0,11.4,0c0,0.6,0,1.2,0,1.7c-4.5,0-8.8,0-13.3,0
		C191.5,80.8,191.5,73.6,191.5,66.3z"/>
	<path class="st1" d="M223.8,55.2c-0.7,0-1.2,0-1.8,0c-0.1,0-0.3-0.2-0.4-0.4c-0.6-1.6-1.2-3.2-1.7-4.8c-0.1-0.4-0.3-0.5-0.7-0.5
		c-3.2,0-6.4,0-9.5,0c-0.4,0-0.5,0.1-0.7,0.5c-0.6,1.6-1.1,3.2-1.7,4.8c-0.1,0.4-0.3,0.5-0.7,0.5c-0.5,0-1,0-1.5,0
		c0.5-1.4,1-2.8,1.6-4.1c2.2-5.7,4.3-11.3,6.5-17c0.2-0.4,0.3-0.6,0.8-0.6c0.5,0.1,1.2-0.1,1.6,0.1c0.4,0.2,0.4,0.9,0.6,1.4
		c2.5,6.5,5,13.1,7.4,19.6C223.7,54.8,223.7,54.9,223.8,55.2z M209.8,47.7c3.1,0,6.2,0,9.2,0c-1.5-4.3-3-8.6-4.6-12.9
		C212.9,39.2,211.4,43.4,209.8,47.7z"/>
	<path class="st1" d="M206.7,0.7c0.2,0,0.4,0,0.6,0c3.8,0,7.7,0,11.5,0c0.5,0,0.7,0.1,0.7,0.6c0,0.3,0,0.7,0,1.1
		c-3.6,0-7.3,0-10.9,0c0,2.6,0,5.2,0,7.8c3.1,0,6.3,0,9.4,0c0,0.5,0,1,0,1.6c-3.2,0-6.3,0-9.4,0c0,3,0,5.9,0,8.8c3.8,0,7.6,0,11.4,0
		c0,0.6,0,1.2,0,1.7c-4.5,0-8.9,0-13.3,0C206.7,15.1,206.7,7.9,206.7,0.7z"/>
	<path class="st1" d="M146.6,68.6c-1.2-0.3-2.3-0.6-3.4-0.8c-1.6-0.3-3.2-0.2-4.7,0.2c-2.3,0.5-3.6,2-4.2,4.2
		c-0.6,2.1-0.7,4.3-0.5,6.4c0.1,1.3,0.3,2.5,0.6,3.8c0.6,2.2,2.1,3.6,4.4,4c2.2,0.4,4.4,0.3,6.5-0.4c0.4-0.1,0.5-0.3,0.5-0.7
		c0-2.7,0-5.4,0-8.1c0-0.4,0.1-0.6,0.6-0.6c1.1,0,1.1,0,1.1,1.1c0,3,0,5.9,0,8.9c0,0.3,0,0.5-0.3,0.7c-3.3,1.3-6.7,1.6-10.1,0.5
		c-2.6-0.9-4-2.9-4.7-5.5c-0.6-2.4-0.7-4.9-0.4-7.3c0.1-1.2,0.3-2.3,0.6-3.4c0.9-3,2.9-4.8,5.9-5.3c2.7-0.5,5.3-0.3,7.9,0.6
		c0.4,0.1,0.6,0.3,0.5,0.8C146.7,67.9,146.7,68.3,146.6,68.6z"/>
	<path class="st1" d="M238.5,33.5c4.3,0,8.5,0,12.8,0c0,0.6,0,1.1,0,1.7c-3.6,0-7.3,0-10.9,0c0,0.2,0,0.4,0,0.5c0,2.2,0,4.5,0,6.7
		c0,0.4,0.1,0.6,0.6,0.6c2.8,0,5.5,0,8.3,0c0.2,0,0.4,0,0.7,0c0,0.5,0,1,0,1.5c-0.2,0-0.4,0-0.6,0c-2.8,0-5.5,0-8.3,0
		c-0.5,0-0.6,0.1-0.6,0.6c0,2.6,0,5.1,0,7.7c0,0.5,0.2,0.6,0.6,0.6c3.4,0,6.9,0,10.3,0c0.2,0,0.4,0,0.6,0c0,0.6-0.1,1.1-0.1,1.7
		c-0.2,0-0.4,0-0.6,0c-4,0-8,0-12,0c-0.5,0-0.6-0.1-0.6-0.6c0-6.8,0-13.7,0-20.5C238.5,33.9,238.5,33.7,238.5,33.5z"/>
	<path class="st1" d="M166.8,0.7c0.2,0,0.3,0,0.4,0c2.6,0,5.2,0,7.7,0.1c0.8,0,1.6,0.2,2.4,0.5c1.6,0.5,2.6,1.6,3.1,3.3
		c0.4,1.5,0.4,3.1,0.1,4.6c-0.5,2.4-2,3.8-4.4,4.2c-0.8,0.1-1.5,0.2-2.3,0.2c-1.5,0-3,0-4.5,0c-0.7,0-0.7,0-0.7,0.6c0,2.5,0,5,0,7.5
		c0,0.2,0,0.4,0,0.6c-0.6,0-1.2,0-1.8,0C166.8,15.1,166.8,8,166.8,0.7z M168.6,7.1c0,1.5,0,2.9,0,4.4c0,0.3,0,0.5,0.4,0.5
		c2,0,4.1,0,6.1-0.1c1.9-0.1,3.1-1.1,3.5-2.7c0.2-1,0.3-2,0.2-3c-0.1-1.6-0.8-2.9-2.4-3.4c-0.5-0.2-1.1-0.3-1.7-0.4
		c-1.9-0.1-3.7,0-5.6-0.1c-0.4,0-0.5,0.1-0.5,0.5C168.7,4.3,168.6,5.7,168.6,7.1z"/>
	<path class="st1" d="M163.4,3c-1-0.3-2-0.6-3-0.8c-1.5-0.3-3-0.3-4.5,0.1c-2,0.6-3,2.4-2.6,4.3c0.2,0.9,0.7,1.6,1.5,2
		c1,0.5,2,0.9,3,1.4c1.1,0.5,2.2,0.8,3.3,1.3c2.6,1.2,3.6,3.2,3.3,6c-0.4,2.8-2,4.7-4.7,5.2c-2.8,0.5-5.4,0.2-7.9-1.1
		c-0.4-0.2-0.5-0.4-0.4-0.8c0.1-0.4,0.2-0.8,0.2-1.2c1.2,0.7,2.4,1.2,3.7,1.5c1.5,0.2,3,0.3,4.4-0.1c2.2-0.7,3.5-3,2.8-5.2
		c-0.3-1-0.9-1.7-1.8-2.2c-0.9-0.5-1.9-0.8-2.8-1.2c-1.1-0.5-2.3-0.9-3.5-1.4c-2.2-1.1-3.2-2.9-2.9-5.2c0.3-2.5,1.6-4.1,4-4.8
		c2.7-0.7,5.3-0.4,7.9,0.7c0.2,0.1,0.3,0.2,0.2,0.5C163.6,2.2,163.5,2.7,163.4,3z"/>
	<path class="st1" d="M197.9,53.5c0.5-1.4,0.9-2.7,1.4-4c1.8-5.2,3.6-10.3,5.4-15.5c0.1-0.4,0.3-0.5,0.7-0.5c0.4,0,0.9,0,1.4,0
		c-0.1,0.2-0.1,0.4-0.2,0.6c-2.5,6.9-5,13.7-7.5,20.6c-0.2,0.4-0.4,0.6-0.8,0.5c-0.5-0.1-1.2,0.1-1.6-0.1c-0.4-0.3-0.4-0.9-0.6-1.4
		c-2.4-6.5-4.8-13.1-7.1-19.6c-0.1-0.2-0.1-0.3-0.2-0.6c0.7,0,1.3,0,1.9,0c0.1,0,0.3,0.3,0.3,0.4c1.3,3.6,2.5,7.2,3.8,10.9
		c1,2.7,1.9,5.5,2.8,8.2C197.8,53.1,197.8,53.2,197.9,53.5z"/>
	<path class="st1" d="M189.9,66.3c0,0.6,0,1.1,0,1.8c-2.2,0-4.5,0-6.8,0c0,6.7,0,13.3,0,19.9c-0.6,0-1.2,0-1.9,0
		c0-6.6,0-13.2,0-19.9c-2.3,0-4.5,0-6.8,0c0-0.6,0-1.2,0-1.8C179.6,66.3,184.7,66.3,189.9,66.3z"/>
	<path class="st1" d="M221.4,35.3c0-0.6,0.1-1.2,0.1-1.7c5.1,0,10.2,0,15.4,0c0,0.6,0,1.1,0,1.7c-0.2,0-0.4,0-0.6,0
		c-1.9,0-3.8,0-5.6,0c-0.5,0-0.6,0.2-0.6,0.6c0,6.2,0,12.4,0,18.6c0,0.7,0,0.7-0.7,0.7c-1.1,0-1.1,0-1.1-1.1c0-6,0-12.1,0-18.1
		c0-0.7,0-0.7-0.7-0.7c-1.8,0-3.7,0-5.5,0C221.9,35.3,221.7,35.3,221.4,35.3z"/>
	<path class="st1" d="M126.5,66.3c0.6,0,1.2,0,1.8,0c0,7.2,0,14.4,0,21.7c-0.6,0-1.2,0-1.8,0C126.5,80.7,126.5,73.5,126.5,66.3z"/>
	<path class="st1" d="M172.5,88c-0.6,0-1.2,0-1.8,0c0-7.2,0-14.4,0-21.7c0.6,0,1.2,0,1.8,0C172.5,73.5,172.5,80.7,172.5,88z"/>
	<path class="st1" d="M128.3,0.7c0,7.2,0,14.4,0,21.6c-0.6,0-1.2,0-1.8,0c0-7.2,0-14.4,0-21.6C127.1,0.7,127.7,0.7,128.3,0.7z"/>
	<path class="st1" d="M185.5,22.3c-0.6,0-1.2,0-1.8,0c0-0.2,0-0.4,0-0.5c0-6.8,0-13.7,0-20.5c0-0.5,0.1-0.6,0.6-0.6
		c1.3,0,1.3,0,1.3,1.3c0,6.6,0,13.1,0,19.7C185.5,21.9,185.5,22.1,185.5,22.3z"/>
	<path class="st1" d="M126.5,33.5c0.6,0,1.2,0,1.8,0c0,7.2,0,14.4,0,21.6c-0.6,0-1.2,0-1.8,0C126.5,47.9,126.5,40.7,126.5,33.5z"/>
</g>
</svg>
