<svg version="1.1" id="Layer_1" xmlns="http://www.w3.org/2000/svg" xmlns:xlink="http://www.w3.org/1999/xlink" x="0px" y="0px" viewBox="-14 0 100 100" style="enable-background:new -14 0 100 100;" xml:space="preserve">
<style type="text/css">
	.st0{opacity:0.9031;}
	.st1{fill:white;}
</style>
<g id="SB-WEB-DESIGN_1_" class="st0">
	<g id="meet-page_1_" transform="translate(-321.000000, -955.000000)">
		<g id="Group-2_1_" transform="translate(101.000000, 569.000000)">
			<g id="social-media_1_" transform="translate(0.000000, 380.000000)">
				<g id="youtube" transform="translate(220.285714, 6.000000)">
					<path id="Combined-Shape" class="st1" d="M84.7,28.4c0,0,1,8.8,1,17.6v8.1c0,8.6-1,17.4-1,17.4s-1,7.4-4,10.7
						c-3.8,4.1-8.1,4.3-10,4.5c-14,1.2-35,1.2-35,1.2s-26-0.2-34-1c-2.2-0.5-7.2-0.3-11-4.7c-2.9-3.3-4-10.7-4-10.7s-1-8.6-1-17.4
						V46c0-8.8,1-17.6,1-17.6s0.9-7.4,4-10.7c3.8-4.1,8.1-4.3,10-4.5c14-1,35-1.2,35-1.2s21,0.2,35,1.2c1.9,0.2,6.2,0.2,10,4.5
						C83.6,21,84.7,28.4,84.7,28.4z M23.6,32.6V70l32.8-18.3L23.6,32.6z"></path>
				</g>
			</g>
		</g>
	</g>
</g>
</svg>